<?xml version="1.0" encoding="utf-8"?>
<!-- Generator: Adobe Illustrator 22.0.1, SVG Export Plug-In . SVG Version: 6.00 Build 0)  -->
<svg version="1.1" id="Calque_1" xmlns="http://www.w3.org/2000/svg" xmlns:xlink="http://www.w3.org/1999/xlink" x="0px" y="0px"
	 viewBox="0 0 432 432" style="enable-background:new 0 0 432 432;" xml:space="preserve">
<style type="text/css">
	.st0{fill:#333333;}
	.st1{fill:#C1654C;}
	.st2{fill:#D89048;}
	.st3{fill:#8C9852;}
	.st4{fill:#B7B94C;}
	.st5{fill:#CCCCCC;}
	.st6{fill:#1A1A1A;}
	.st7{fill:#E76424;}
	.st8{fill:#BC943B;}
	.st9{fill:#F98A0C;}
	.st10{fill:#B583BA;}
	.st11{fill:#DEAC57;}
	.st12{fill:#E9B42A;}
	.st13{fill:#BC8B3E;}
	.st14{fill:#9E9C3E;}
	.st15{fill:#AA5E18;}
	.st16{fill:#F7953B;}
	.st17{fill:#D19656;}
	.st18{fill:#61A364;}
	.st19{fill:#8973A0;}
	.st20{fill:#C69C6D;}
	.st21{fill:#FBD66C;}
	.st22{fill:#CEA146;}
	.st23{fill:#9EAE87;}
	.st24{fill:#B3B3B3;}
	.st25{fill:#BD30BF;}
	.st26{fill:#76C40C;}
	.st27{fill:#D8C241;}
</style>
<g>
	<g>
		<g>
			<g>
				<path class="st0" d="M149,99.6c0.4,0.5,0.5,0.8,0.5,1.2c0,3.5,0.3,7,0.5,10.3c0,0.4,0.1,0.8,0.2,1.2c0.2,0.6,0.8,1,1.6,1.1
					c0.1,0,0.1,0,0.2,0c0.7,0,1.2-0.3,1.7-0.9c0.3-0.5,0.4-1.1,0.3-1.7c-0.1-0.4-0.2-1-0.2-1.5c-0.1-1.5-0.2-2.9-0.3-4.3
					c-0.1-1.4-0.2-2.9-0.3-4.3v-0.3c1.2-0.8,1.8-2,2.4-3.1c0.5-0.9,1-1.8,1.4-2.7c1.9-4.1,3.3-8.5,4.4-13.3c0.1-0.4,0.1-0.8,0.1-1.2
					c-0.1-0.7-0.6-1.3-1.4-1.5c-0.8-0.2-1.6,0.1-1.9,0.6c-0.2,0.3-0.3,0.5-0.4,0.9c-0.1,0.2-0.2,0.5-0.2,0.7c0,0.1-0.1,0.2-0.1,0.3
					c-0.8,3.7-2,7.3-3.7,11.2c-0.5,1.3-1.2,2.7-2.2,4.1l-0.1,0.1c-0.1,0.1-0.1,0.2-0.1,0.2c-0.4-0.5-0.7-1-0.9-1.4
					c-1.4-2.5-2.6-4.9-3.5-7.4c-0.9-2.5-1.6-5.1-2.2-7.8c0-0.3-0.1-0.5-0.2-0.8c-0.4-0.7-1.1-1.1-1.9-0.9c-0.8,0.2-1.3,0.8-1.4,1.5
					c0,0.4,0,0.8,0.1,1.2c0.8,5.4,2.7,10.6,5.8,16C147.8,98,148.4,98.9,149,99.6z"/>
				<path class="st0" d="M167,108.9c2.6,2.9,5.8,4.3,9.4,4.3c0.2,0,0.3,0,0.5,0c3.9-0.2,7.1-1.8,9.5-4.9c1.1-1.4,2-3.1,2.6-5.1l0,0
					c0.9-3,1.2-5.8,0.9-8.4c-0.4-4.2-1.6-7.7-3.8-10.7c-1.8-2.6-4-4.3-6.7-5.1c-2.2-0.7-4.5-0.6-6.7,0.2c-1.7,0.7-3.3,1.8-4.6,3.2
					c-1.7,1.9-3,4-3.8,6.2c-1.6,4.5-1.9,8.9-0.9,13.3C164,104.7,165.2,107,167,108.9z M176.9,82.1c0.5,0,1.1,0.1,1.7,0.4
					c1.9,0.8,3.5,2.1,4.9,4.2c1.6,2.5,2.6,5.4,2.8,8.5c0.2,2.4-0.1,4.8-0.9,7.3c-0.4,1.3-1.1,2.5-1.8,3.6c-2.2,2.9-5.2,4.1-8.8,3.4
					c-1.9-0.3-3.6-1.3-5.1-2.9c-1.4-1.6-2.3-3.4-2.7-5.5c-0.7-4-0.4-7.7,1-11.4c0.6-1.6,1.5-3.2,2.8-4.6c0.5-0.5,1-1,1.5-1.4
					c1.2-0.9,2.6-1.4,4.4-1.5C176.8,82.1,176.9,82.1,176.9,82.1z"/>
				<path class="st0" d="M219.4,81.8l0-0.6c0-0.4,0-0.8-0.1-1.2c-0.2-0.9-0.9-1.4-1.7-1.4c0,0,0,0,0,0c-0.8-0.1-1.6,0.4-1.8,1.2
					c-0.1,0.4-0.2,0.9-0.2,1.4c0,0.3,0,0.7,0,1c0,0.2,0,0.3,0,0.5c0,1,0,2,0,3c0,3,0,6.1-0.2,9c-0.2,2.4-0.4,4.7-0.8,6.6
					c-0.4,2.1-1.1,3.8-2,5.4c-0.5,0.8-0.9,1.4-1.5,1.9c-1.1,1.1-3.1,2-5.4,1c-1.4-0.6-2.5-1.4-3.3-2.3c-0.6-0.7-1.1-1.4-1.6-2.3
					c-0.9-1.4-1.5-3.1-1.9-5c-0.6-2.6-0.9-5.4-1-8.8l-0.1-10.4c0-0.3,0-0.7-0.1-1.1c-0.2-0.5-0.7-0.9-1.2-1
					c-0.6-0.1-1.2,0.1-1.6,0.5c-0.3,0.3-0.4,0.7-0.5,1c-0.1,0.6-0.2,1.1-0.2,1.7c0,1.2,0,2.5,0,3.7c0,2.4,0,4.9,0,7.3
					c0.1,3.2,0.4,6.1,1.2,8.8c0.8,2.9,2.1,5.5,3.8,7.6c1.5,1.7,3.2,3,5.2,3.8c1.2,0.4,2.3,0.6,3.4,0.6c2.1,0,4-0.8,5.8-2.3
					c0.8-0.7,1.5-1.6,2.2-2.7c0.9-1.6,1.6-3.1,2.1-4.8l0,0c0.6-2.3,1-4.8,1.2-7.6C219.1,94,219.3,84.8,219.4,81.8z"/>
			</g>
			<g>
				<path class="st0" d="M244.7,99.8l0.5,0.3c1.2,0.7,2.3,1.4,3.5,2.2c1,0.7,1.8,1.6,2.6,3c0.4,0.6,0.5,1.1,0.6,1.7
					c0.1,1.3-0.4,2.1-1.6,2.6c-1.8,0.8-3.4,0.6-5-0.5l-0.3-0.2c-0.2-0.2-0.5-0.3-0.8-0.5c-0.5-0.2-1-0.2-1.5,0c-0.5,0.2-0.8,0.6-1,1
					c-0.2,0.5-0.2,1.3,0.7,2.1c1.7,1.5,3.7,2.2,5.7,2.2c1.4,0,2.7-0.3,4.1-1c1.8-0.9,2.9-2.3,3.3-4.3c0.2-1.4,0-2.7-0.7-4.2
					c-0.9-1.8-2.1-3.3-3.8-4.6c-0.7-0.5-1.6-1.1-2.4-1.6c-0.8-0.5-1.7-1-2.5-1.5c-0.3-0.2-0.6-0.4-1-0.6c-1.1-0.6-1.8-1.2-2.5-1.8
					c-1.1-1.1-1.7-2.3-1.8-3.7c0-0.7,0.1-1.6,0.3-2.4c0.6-1.8,1.5-3.2,2.9-4.4c1.3-1,3.3-1.4,5.1-1.1c1.5,0.3,2.7,1.1,3.3,2.2
					c0.1,0.1,0.1,0.2,0.2,0.3c0.1,0.1,0.1,0.1,0.2,0.2c0.2,0.2,0.3,0.3,0.5,0.4c0.6,0.4,1.3,0.3,1.8,0c0.6-0.5,0.8-1.1,0.6-1.8
					c0-0.1-0.1-0.1-0.1-0.2c0-0.1-0.1-0.2-0.2-0.3c-1.3-2.4-3.3-3.8-5.9-4.2c-0.6-0.1-1.3-0.1-2-0.2c-2.9,0.1-5.3,1.1-7.3,3.2
					c-1.6,1.7-2.6,3.7-3.1,6c-0.5,2.3-0.2,4.4,0.9,6.4c0.7,1.3,1.8,2.5,3.1,3.3c0.7,0.5,1.4,0.9,2.1,1.3
					C243.9,99.2,244.3,99.5,244.7,99.8z"/>
				<path class="st0" d="M259.9,112.2c0.3,0.6,0.9,1.1,1.6,1.1c0,0,0,0,0,0c0.8-0.1,1.4-0.6,1.5-1.4c0.1-0.3,0.1-0.7,0.1-1
					c0-0.6,0-1.3,0-1.9c0-0.6,0-1.3,0-1.9c0-0.1,0-0.3,0-0.4h20.1c0,0.1,0,0.2,0,0.2l0.1,3.9c0,0.1,0,0.3,0,0.4c0,0.2,0,0.5,0.1,0.7
					c0.2,0.8,0.9,1.4,1.8,1.4c0,0,0,0,0,0c0.9-0.1,1.6-0.6,1.7-1.4c0.1-0.6,0.1-1.2,0.1-1.7c0-0.9-0.1-1.9-0.1-2.8
					c0-0.9-0.1-1.7-0.1-2.6c-0.2-3.5-0.6-6.7-1.3-9.7c-0.7-3.4-1.8-6.5-3.3-9.3c-1-1.8-2.1-3.3-3.3-4.5c-0.8-0.8-1.8-1.5-2.9-2.1
					c-2.2-1.1-4.5-1.1-6.8,0c-1.7,0.8-3.3,2-4.6,3.7c-1.2,1.6-2.2,3.4-3,5.6c-1,3-1.7,6.3-2.1,10.1c-0.4,3.9-0.3,7.7,0,12.3
					C259.7,111.3,259.8,111.7,259.9,112.2z M263.1,102.8L263.1,102.8c0.1-4.6,0.7-8.5,1.8-12.1c0.7-2.1,1.5-3.8,2.6-5.2
					c0.4-0.6,1-1.1,1.5-1.7c0.6-0.5,1.2-0.9,2-1.3c1.1-0.5,2.3-0.5,3.4,0c0.9,0.4,1.6,1,2.2,1.6c1,1.1,1.9,2.3,2.7,3.8
					c1.2,2.3,2.2,5,2.8,7.8c0.4,1.6,0.6,3.1,0.8,4.8l0.2,1.1c0.1,0.5,0.1,0.9,0.1,1.3c-0.2,0.1-0.4,0-0.6,0c-0.1,0-0.2,0-0.3,0
					c-4.5,0-9.2,0-13.8,0c-1.4,0-2.8,0-4.1,0.1h-1.1C263.1,102.8,263.1,102.8,263.1,102.8z"/>
				<path class="st0" d="M292.9,97.1c0.5,0.9,1.1,1.7,1.7,2.4c0.4,0.5,0.5,0.8,0.5,1.2c0,3.5,0.3,7,0.5,10.3c0,0.4,0.1,0.8,0.2,1.2
					c0.2,0.6,0.8,1,1.6,1.1c0.1,0,0.1,0,0.2,0c0.7,0,1.2-0.3,1.7-0.9c0.3-0.5,0.4-1.1,0.3-1.7c-0.1-0.4-0.2-1-0.2-1.5
					c-0.1-1.5-0.2-2.9-0.3-4.3c-0.1-1.4-0.2-2.9-0.3-4.3v-0.3c1.2-0.8,1.8-2,2.4-3.1c0.5-0.9,1-1.8,1.4-2.7
					c1.9-4.1,3.3-8.5,4.4-13.3c0.1-0.4,0.1-0.8,0.1-1.2c-0.1-0.7-0.6-1.3-1.4-1.5c-0.8-0.2-1.6,0.1-1.9,0.6
					c-0.2,0.3-0.3,0.5-0.4,0.9c-0.1,0.2-0.2,0.5-0.2,0.7c0,0.1-0.1,0.2-0.1,0.3c-0.8,3.7-2,7.3-3.7,11.2c-0.5,1.3-1.2,2.7-2.2,4.1
					l-0.1,0.1c-0.1,0.1-0.1,0.2-0.1,0.2c-0.4-0.5-0.7-1-0.9-1.4c-1.4-2.5-2.6-4.9-3.5-7.4c-0.9-2.5-1.6-5.1-2.2-7.8
					c-0.1-0.3-0.1-0.5-0.2-0.8c-0.4-0.7-1.1-1.1-1.9-0.9c-0.8,0.2-1.3,0.8-1.4,1.5c0,0.4,0,0.8,0.1,1.2
					C287.9,86.5,289.8,91.7,292.9,97.1z"/>
			</g>
		</g>
		<g>
			<g>
				<path class="st0" d="M121.8,267.3c0.1,0.7,0.2,1.5,0.3,2.2c0,0.3,0.1,0.6,0.1,0.9c0.1,0.8,0.6,1.4,1.5,1.7
					c0.5,0.2,1.1,0.3,1.6,0.4c1.1,0.1,2.2,0.1,3.2,0.1c1.3,0,2.5-0.1,3.7-0.2c0.6,0,1.2-0.1,1.8-0.2c0.9-0.2,1.5-1,1.5-1.8
					c0-0.9-0.7-1.6-1.7-1.7c-0.3,0-0.5,0-0.8,0c-0.1,0-0.2,0-0.3,0c-1.8,0.3-3.6,0.3-5.4,0.2l-0.6,0c-0.3,0-0.6,0-1-0.1
					c0-0.1,0-0.2,0-0.4c-0.4-2.8-0.6-5.5-0.7-8.8c-0.1-2.9-0.1-5.8-0.2-8.7c0-1.9,0-3.8-0.1-5.7c0-1.8,0-3.7,0-5.6l0-0.5
					c-0.1-0.7-0.6-1.2-1.3-1.3c-0.6-0.1-1.5,0.1-1.8,0.8c-0.2,0.3-0.3,0.7-0.3,1.1l-0.1,1.1c-0.1,1.2-0.2,2.4-0.2,3.6
					c0,4.2,0,8.4,0.1,12.6C121.3,260.5,121.5,264.2,121.8,267.3z"/>
				<path class="st0" d="M142,272.6c0.1,0,0.2,0,0.3,0c0.8-0.2,1.3-0.8,1.5-1.5c0.1-0.3,0.1-0.6,0.1-0.9c0-0.5,0-0.9,0-1.4
					c0-0.5,0-0.9,0-1.4c-0.2-4.9-0.1-23.8,0-28c0-0.5-0.2-1-0.6-1.3c-0.4-0.3-0.9-0.5-1.4-0.4c-0.7,0.1-1.2,0.5-1.4,1.1
					c-0.2,0.5-0.3,1-0.3,1.4l0,0c0,0.4,0,0.9-0.1,1.3c0,0.9-0.1,1.9-0.1,2.8c-0.1,3.8-0.1,15.9-0.1,18.4c0,2.5,0.1,5.1,0.2,7.6
					c0,0.4,0.1,0.7,0.3,1.2C140.6,272.3,141.3,272.6,142,272.6z"/>
				<path class="st0" d="M168,237.7c-0.7-0.3-1.4-0.2-1.9,0.3c-0.2,0.2-0.4,0.5-0.6,0.7l-0.1,0.1c-0.7,1-11,15.1-13.6,18.4
					c0-3.4-0.1-14-0.3-17.4c0-0.1,0-0.2,0-0.4c0-0.3,0-0.5-0.1-0.8c-0.2-0.7-0.9-1.2-1.7-1.1c-0.7,0-1.4,0.6-1.6,1.3
					c-0.1,0.3-0.1,0.6-0.1,0.7c0,2.1,0.1,28.6,0.2,30.5c0,0.3,0,0.6,0.1,0.9c0.1,0.8,0.9,1.4,1.6,1.4c0,0,0,0,0,0c0.1,0,0.1,0,0.2,0
					c0.8,0,1.5-0.4,1.7-1.1c0.1-0.4,0.2-0.8,0.2-1.3c0-0.9,0-1.8,0-2.8c0-0.9,0-1.9,0-2.9c0-0.5,0-0.8,0.2-1.1c0.5-0.7,1-1.4,1.6-2
					c0.3-0.3,0.6-0.7,0.8-1c0.9-0.2,1.6-0.1,2.3,0.2c1.2,0.5,2.1,1.1,2.7,2c0.8,1.2,1.3,2.4,1.5,3.7c0.1,0.8,0.2,1.6,0.2,2.4
					c0,0.6,0.1,1.1,0.2,1.7c0,0.2,0,0.4,0,0.6l0,0.1c0.2,0.8,0.9,1.4,1.7,1.5c0.9,0.1,1.7-0.5,2-1.4c0.1-0.3,0.1-0.6,0.1-0.8
					c-0.1-1.6-0.2-3.4-0.5-5c-0.4-2.1-1.1-3.7-2.2-5.1c-1.4-1.9-3.2-3-5.4-3.3c0.4-0.6,1.2-1.7,2-2.9c3.3-4.6,8.8-12.4,9.5-13.7
					c0.1-0.2,0.2-0.5,0.3-0.8C169,238.6,168.6,238,168,237.7z"/>
				<path class="st0" d="M178.2,237.7c-0.9,0.1-1.9,0.2-2.8,0.6c-0.7,0.2-1.1,0.7-1.3,1.3c-0.1,0.3-0.2,0.7-0.3,1
					c-0.3,1-0.5,2-0.7,3c-0.2,1.6-0.4,3.3-0.5,4.8c-0.4,5.3-0.2,9.7,0.5,13.6c0.4,2.1,1,4.7,2,7.4l0.5,1.1c0.4,0.7,1,1.1,1.9,1.3
					c1.5,0.3,3,0.5,4.4,0.5c0.8,0,1.6-0.1,2.4-0.2l0.2,0c0.8-0.1,1.6-0.2,2.5-0.3c1.4-0.2,2.8-0.5,4.2-0.8c0.4-0.1,0.7-0.2,1-0.3
					c0.7-0.4,1-1.2,0.7-1.9c-0.3-0.7-0.9-1.2-1.7-1.2c-0.3,0-0.5,0-0.8,0.1c-1.7,0.4-3.4,0.7-5.3,0.9c-2,0.2-3.7,0.3-5.4,0.2l-0.2,0
					c-0.3,0-0.5,0-0.6-0.1c-0.8-1.7-1.6-4.9-1.7-6.3c0.9-0.1,3.3-0.1,5-0.2c2.1-0.1,3-0.1,3.1-0.1c0.8-0.2,1.3-0.9,1.3-1.6
					c0-0.7-0.5-1.4-1.3-1.6c-0.2-0.1-0.8,0-3.9,0.1c-1.8,0.1-4.1,0.2-4.9,0.1c-0.8-3.3-0.3-13.9,0.9-18c0.3,0,0.5,0,0.8-0.1
					c0.9-0.1,1.8-0.2,2.6-0.1c1.8,0.1,3.5,0.2,5.1,0.3c1.2,0.1,2.4,0.2,3.6,0.4c0.3,0.1,0.6,0.1,1,0c0.8-0.1,1.4-0.7,1.6-1.5
					c0.1-0.9-0.5-1.6-1.4-1.8c-0.4-0.1-0.9-0.2-1.3-0.2l-5.9-0.6C181.5,237.4,179.8,237.5,178.2,237.7z"/>
			</g>
			<g>
				<path class="st0" d="M219.4,267.4c-0.2-4.9-0.1-23.8,0-28c0-0.5-0.2-1-0.6-1.3c-0.4-0.3-0.9-0.5-1.4-0.4
					c-0.7,0.1-1.2,0.5-1.4,1.1c-0.2,0.5-0.3,1-0.3,1.4l0,0c0,0.4,0,0.9-0.1,1.3c0,0.9-0.1,1.9-0.1,2.8c-0.1,3.8-0.1,15.9-0.1,18.4
					c0,2.5,0.1,5.1,0.2,7.6c0,0.4,0.1,0.7,0.3,1.2c0.3,0.6,1,1,1.7,1c0.1,0,0.2,0,0.3,0c0.8-0.2,1.3-0.8,1.5-1.5
					c0.1-0.3,0.1-0.6,0.1-0.9c0-0.5,0-0.9,0-1.4C219.4,268.4,219.4,267.9,219.4,267.4z"/>
				<path class="st0" d="M242,238.2c-0.3-0.1-0.6-0.2-0.8-0.2l-0.5-0.1c-1.4-0.2-2.7-0.3-4-0.5c-3.7-0.3-7.4-0.1-11.1,0.3
					c-0.2,0-0.3,0-0.6,0.1c-0.9,0.2-1.4,0.9-1.4,1.8c0.1,0.8,0.7,1.3,1.6,1.4l4.9,0c0,0.2,0,0.3,0,0.6c0,0.9,0,2.2,0,2.9
					c-0.1,5.3,0.3,10.4,0.5,14.3c0.1,1.9,0.4,3.7,0.6,5.6c0.1,1,0.3,2,0.5,3c0.2,1,0.3,2,0.5,3l0.1,0.8l0,0.1
					c0.3,0.7,0.9,1.1,1.6,1.2c0.1,0,0.1,0,0.2,0c0.7,0,1.3-0.4,1.7-1.1c0.2-0.4,0.3-0.9,0.1-1.3c-0.1-0.5-0.2-1-0.2-1.5
					c-0.8-4.5-1.3-9.1-1.5-14.1c-0.2-3.8-0.3-11.5-0.3-13.3c1.5,0.1,6.7,0.6,7.4,0.7c1.1,0.1,2-0.5,2.2-1.4
					C243.6,239.3,243,238.5,242,238.2z"/>
				<path class="st0" d="M248.3,245.6c-0.1,0.1-0.3,0.3-0.4,0.5c-0.3,0.4-0.3,0.9-0.2,1.3c0.1,0.4,0.4,0.8,0.9,1
					c0.2,0.1,0.5,0.2,0.7,0.2c0.5,0,0.9-0.2,1.2-0.5c2.1-1.8,3.4-4,3.7-6.6c0.1-1.4-0.3-2.5-1.3-3.3c-0.9-0.7-1.9-0.9-2.9-0.6
					c-1,0.4-1.6,1.2-1.8,2.4c-0.1,1.1,0.3,2,1.1,2.6l0,0c0.2,0.2,0.4,0.3,0.6,0.4c0,0,0.1,0.1,0.1,0.1c-0.3,0.8-0.8,1.5-1.4,2.2
					C248.4,245.4,248.3,245.5,248.3,245.6z"/>
				<path class="st0" d="M265.3,242.5c1.3-1,3.3-1.4,5.1-1.1c1.5,0.3,2.7,1.1,3.3,2.2c0.1,0.1,0.1,0.2,0.2,0.3
					c0.1,0.1,0.1,0.1,0.2,0.2c0.2,0.2,0.3,0.3,0.5,0.4c0.6,0.4,1.3,0.3,1.8,0c0.6-0.5,0.8-1.1,0.6-1.8c0-0.1-0.1-0.1-0.1-0.2
					c0-0.1-0.1-0.2-0.2-0.3c-1.3-2.4-3.3-3.8-5.9-4.2c-0.6-0.1-1.3-0.1-2-0.2c-2.9,0.1-5.3,1.1-7.3,3.2c-1.6,1.7-2.6,3.7-3.1,6
					c-0.5,2.3-0.2,4.4,0.9,6.4c0.7,1.3,1.8,2.5,3.1,3.3c0.7,0.5,1.4,0.9,2.1,1.3c0.4,0.3,0.9,0.5,1.3,0.8l0.5,0.3
					c1.2,0.7,2.3,1.4,3.5,2.2c1,0.7,1.8,1.6,2.6,3c0.4,0.6,0.5,1.1,0.6,1.7c0.1,1.3-0.4,2.1-1.6,2.6c-1.8,0.8-3.4,0.6-5-0.5
					l-0.3-0.2c-0.2-0.2-0.5-0.3-0.8-0.5c-0.5-0.2-1-0.2-1.5,0c-0.5,0.2-0.8,0.6-1,1c-0.2,0.5-0.2,1.3,0.7,2.1
					c1.7,1.5,3.6,2.2,5.7,2.2c1.4,0,2.7-0.3,4.1-1c1.8-0.9,2.9-2.3,3.3-4.3c0.2-1.4,0-2.7-0.7-4.2c-0.9-1.8-2.1-3.3-3.8-4.6
					c-0.7-0.5-1.6-1.1-2.4-1.6c-0.8-0.5-1.7-1-2.5-1.5c-0.3-0.2-0.6-0.4-1-0.6c-1.1-0.6-1.8-1.2-2.5-1.8c-1.1-1.1-1.7-2.3-1.8-3.7
					c0-0.7,0.1-1.6,0.3-2.4C262.9,245,263.9,243.6,265.3,242.5z"/>
			</g>
			<path class="st0" d="M304.9,241.9c-1.2,1.6-2.2,3.4-3,5.6c-1,3-1.7,6.3-2.1,10.1c-0.4,3.9-0.3,7.7,0,12.3
				c0.1,0.4,0.2,0.8,0.3,1.3c0.3,0.6,0.9,1.1,1.6,1.1c0,0,0,0,0,0c0.8-0.1,1.4-0.6,1.5-1.4c0.1-0.3,0.1-0.7,0.1-1c0-0.6,0-1.3,0-1.9
				c0-0.6,0-1.3,0-1.9c0-0.1,0-0.3,0-0.4h20.1c0,0.1,0,0.2,0,0.2l0.1,3.9c0,0.1,0,0.3,0,0.4c0,0.2,0,0.5,0.1,0.7
				c0.2,0.8,0.9,1.4,1.8,1.4c0,0,0,0,0,0c0.9-0.1,1.6-0.6,1.7-1.4c0.1-0.6,0.1-1.2,0.1-1.7c0-0.9-0.1-1.9-0.1-2.8
				c0-0.9-0.1-1.7-0.1-2.6c-0.2-3.5-0.6-6.7-1.3-9.7c-0.7-3.4-1.8-6.5-3.3-9.3c-1-1.8-2.1-3.3-3.3-4.5c-0.8-0.8-1.8-1.5-2.9-2.1
				c-2.2-1.1-4.5-1.1-6.8,0C307.8,239,306.2,240.2,304.9,241.9z M303.3,261.8L303.3,261.8c0.1-4.6,0.7-8.5,1.8-12.1
				c0.7-2.1,1.5-3.8,2.6-5.2c0.4-0.6,1-1.1,1.5-1.7c0.6-0.5,1.2-0.9,2-1.3c1.1-0.5,2.3-0.5,3.4,0c0.9,0.4,1.6,1,2.2,1.6
				c1,1.1,1.9,2.3,2.7,3.8c1.2,2.3,2.2,5,2.8,7.8c0.4,1.6,0.6,3.1,0.8,4.8l0.2,1.1c0.1,0.5,0.1,0.9,0.1,1.3c-0.2,0.1-0.4,0-0.6,0
				c-0.1,0-0.2,0-0.3,0c-4.5,0-9.2,0-13.8,0c-1.4,0-2.8,0-4.1,0.1h-1.1C303.3,261.8,303.3,261.8,303.3,261.8z"/>
		</g>
		<g>
			<g>
				<path class="st0" d="M134.3,292c-2.7-1.6-5.5-2.5-8.3-2.7c-2.4-0.2-4.7,0.4-6.8,1c-0.1,0-0.2,0-0.2,0.1
					c-0.7,0.3-1.1,0.8-1.1,1.5l0,0.1c0,0.3-0.1,0.6-0.1,0.9c0,2.9,0.5,27.9,0.5,29.5c0.1,1.2,0.7,1.8,1.9,1.8c1.6,0,3.6-0.1,5.5-0.5
					c0.8-0.2,1.7-0.5,2.5-1c1.9-1.1,2.7-3.3,2.1-5.4c-0.2-0.9-0.7-1.6-1.3-2.4l-0.3-0.3c0.1,0,0.2-0.1,0.3-0.1
					c1.3-0.4,3.3-1.1,5-2.1c2.1-1.2,3.7-2.6,4.8-4.4c1.5-2.2,2-4.6,1.5-7.3C139.5,296.9,137.5,294,134.3,292z M123.1,312.2
					c-0.5,0.1-0.9,0.2-1.4,0.2c-0.1-3.1-0.2-6.2-0.2-9.2c-0.1-3.3-0.2-6.6-0.3-9.9c0,0,0,0,0.1,0c1.9-0.4,3.4-0.5,4.8-0.3
					c2.8,0.2,5.4,1.2,7.6,3c2,1.6,3.2,3.9,3.3,6.7c0,1.1-0.2,2-0.8,3c-0.8,1.3-1.8,2.4-3.2,3.3c-1.3,0.8-2.7,1.4-4.2,1.9
					C126.9,311.4,125.1,311.8,123.1,312.2L123.1,312.2z M125.2,320.2c-1,0.3-2.1,0.4-3.4,0.5c-0.1-1.5-0.2-3-0.1-4.5
					c0.6,0,1.8-0.1,2.4,0c0.7,0,1.4,0.3,1.9,0.8c0.2,0.2,0.4,0.4,0.6,0.6c0.2,0.4,0.5,0.9,0.3,1.4c-0.1,0.5-0.6,0.8-1,1
					C125.6,320,125.4,320.1,125.2,320.2L125.2,320.2z"/>
				<path class="st0" d="M171.2,315.7c-0.2-3.5-0.6-6.7-1.3-9.7c-0.7-3.4-1.8-6.5-3.3-9.3c-1-1.8-2.1-3.3-3.3-4.5
					c-0.8-0.8-1.8-1.5-2.9-2.1c-2.2-1.1-4.5-1.1-6.8,0c-1.7,0.8-3.3,2-4.6,3.7c-1.2,1.6-2.2,3.4-3,5.6c-1,3-1.7,6.3-2.1,10.1
					c-0.4,3.9-0.3,7.7,0,12.3c0.1,0.4,0.2,0.8,0.3,1.3c0.3,0.6,0.9,1.1,1.6,1.1c0,0,0,0,0,0c0.8-0.1,1.4-0.6,1.5-1.4
					c0.1-0.3,0.1-0.7,0.1-1c0-0.6,0-1.3,0-1.9c0-0.6,0-1.3,0-1.9c0-0.1,0-0.3,0-0.4h20.1c0,0.1,0,0.2,0,0.2l0.1,3.9
					c0,0.1,0,0.3,0,0.4c0,0.2,0,0.5,0.1,0.7c0.2,0.8,0.9,1.4,1.8,1.4c0,0,0,0,0,0c0.9-0.1,1.6-0.6,1.7-1.4c0.1-0.6,0.1-1.2,0.1-1.7
					c0-0.9-0.1-1.9-0.1-2.8C171.3,317.4,171.3,316.5,171.2,315.7z M167.3,313.6c-0.2,0.1-0.4,0-0.6,0c-0.1,0-0.2,0-0.3,0
					c-4.5,0-9.2,0-13.8,0c-1.4,0-2.8,0-4.1,0.1h-1.1c0-0.1,0-0.1,0-0.1l0-0.1c0.1-4.5,0.7-8.4,1.8-12c0.7-2.1,1.5-3.8,2.6-5.2
					c0.4-0.6,1-1.1,1.5-1.7c0.6-0.5,1.2-0.9,2-1.3c1.1-0.5,2.3-0.5,3.4,0c0.9,0.4,1.6,1,2.2,1.6c1,1.1,1.9,2.3,2.7,3.8
					c1.2,2.3,2.2,5,2.8,7.8c0.4,1.6,0.6,3.1,0.8,4.8l0.2,1.1C167.3,312.9,167.4,313.3,167.3,313.6z"/>
				<path class="st0" d="M195,294.2c-2.7-2.3-5.9-3.8-9.6-4.5c-2.7-0.5-5.2-0.5-7.6,0c-0.2,0-0.5,0.1-0.7,0.2l-0.2,0.1
					c-0.6,0.2-1,0.7-1.1,1.3l0,0c0,0.2,0,0.4-0.1,0.5c0,0.3-0.1,0.7-0.1,1.1c-0.1,1.8,0.3,28.2,0.3,29.3c0.1,1.3,0.8,2,2.2,2
					c0.3,0,0.5,0,0.8,0c0.3,0,0.5,0,0.8,0c3.8-0.3,7.2-1,10.2-2.2c2.1-0.8,4.1-2,5.8-3.5c3.7-3.4,5.6-7.5,5.4-12.3
					C200.8,301.4,198.8,297.4,195,294.2z M197.3,306.5c0,2.4-0.6,4.6-1.9,6.7c-1.4,2.1-3.2,3.8-5.6,5c-1.5,0.7-3,1.3-4.6,1.6
					c-1,0.2-2,0.4-3,0.6c-0.6,0.1-1.1,0.2-1.6,0.3c-0.2,0-0.4,0-0.7,0c-0.1,0-0.2,0-0.3,0c-0.2-5.2-0.3-9.9-0.3-14.9
					c-0.1-4-0.1-8.2-0.3-12.7c0.3-0.1,0.6-0.1,1-0.1c5-0.2,9.1,1.1,12.5,3.9C195.5,299.3,197.2,302.5,197.3,306.5z"/>
			</g>
			<g>
				<path class="st0" d="M234.8,290.1c-0.3-0.1-0.6-0.2-0.8-0.2l-0.5-0.1c-1.4-0.2-2.7-0.3-4-0.5c-3.7-0.3-7.4-0.1-11.1,0.3
					c-0.2,0-0.3,0-0.6,0.1c-0.9,0.2-1.4,0.9-1.4,1.8c0.1,0.8,0.7,1.3,1.6,1.4l4.9,0c0,0.2,0,0.3,0,0.6c0,0.9,0,2.2,0,2.9
					c-0.1,5.2,0.3,10.4,0.5,14.3c0.1,1.9,0.4,3.7,0.6,5.6c0.1,1,0.3,2,0.5,3c0.2,1,0.3,2,0.5,3l0.1,0.8l0,0.1
					c0.3,0.7,0.9,1.1,1.6,1.2c0.1,0,0.1,0,0.2,0c0.7,0,1.3-0.4,1.7-1.1c0.2-0.4,0.3-0.9,0.1-1.3c-0.1-0.5-0.2-1-0.2-1.5
					c-0.8-4.5-1.3-9.1-1.5-14.1c-0.2-3.8-0.3-11.5-0.3-13.3c1.5,0.1,6.7,0.6,7.4,0.7c1.1,0.1,2-0.5,2.2-1.4
					C236.4,291.2,235.8,290.4,234.8,290.1z"/>
				<path class="st0" d="M264.3,313.2c-0.1-4.4-0.2-8.9-0.4-13.4c-0.1-2.6-0.2-5.1-0.4-7.8l0-0.5c0-0.2,0-0.5-0.1-0.9
					c-0.2-0.8-0.8-1.3-1.6-1.3c-0.8,0-1.5,0.5-1.6,1.2c-0.1,0.4-0.2,0.8-0.2,1.2c0,1.1,0,2.1,0,3.2c0,1,0,2.1,0,3.1
					c0.1,4.7,0.2,9.4,0.4,13.9l0,0.6c0,0.1,0,0.3,0,0.5c0,0.1,0,0.2,0,0.3c-5.4,0.1-10.7,0.2-16,0.3c0-0.1,0-0.2,0-0.3
					c0-0.2,0-0.3,0-0.5l-0.1-9.4l-0.4-11.9c0-0.3,0-0.6-0.1-0.9c-0.2-0.7-0.9-1.2-1.6-1.2c-0.7,0-1.4,0.5-1.6,1.1
					c-0.1,0.3-0.2,0.7-0.2,1c0,0.8,0,1.6,0,2.4l0.4,24.7c0,1.1,0,2.5,0,3.6c0,0.4,0.1,0.7,0.2,1c0.3,0.7,0.9,1.2,1.7,1.2
					c0.1,0,0.2,0,0.3,0c0.8-0.1,1.4-0.7,1.6-1.5c0.1-0.4,0.1-0.7,0.1-1V317c1,0,3.9,0,7,0c3.8,0,7.8,0,9.1-0.1c0,0.1,0,0.2,0,0.4
					c0,1.2,0.1,3.3,0.1,4.4c0,0.1,0,0.3,0,0.4c0,0.3,0,0.5,0.1,0.9c0.2,0.8,1,1.3,1.8,1.3c0.9,0,1.5-0.5,1.8-1.3
					c0.1-0.3,0.1-0.7,0.1-1c0-0.7,0-1.4-0.1-2.1C264.5,317.6,264.4,315.4,264.3,313.2z"/>
				<path class="st0" d="M272.7,319.3c-0.2-4.9-0.1-23.8,0-28c0-0.5-0.2-1-0.6-1.3c-0.4-0.3-0.9-0.5-1.4-0.4
					c-0.7,0.1-1.2,0.5-1.4,1.1c-0.2,0.5-0.3,0.9-0.3,1.4l0,0c0,0.4,0,0.9-0.1,1.3c0,0.9-0.1,1.8-0.1,2.8c-0.1,3.8-0.1,15.9-0.1,18.4
					c0,2.5,0.1,5,0.2,7.5l0,0.1c0,0.4,0.1,0.7,0.3,1.2c0.3,0.6,1,1,1.7,1c0.1,0,0.2,0,0.3,0c0.8-0.2,1.3-0.8,1.5-1.5
					c0.1-0.3,0.1-0.6,0.1-0.9c0-0.5,0-0.9,0-1.4C272.7,320.2,272.7,319.8,272.7,319.3z"/>
				<path class="st0" d="M301.2,290.5c-0.2-0.8-1.1-1.3-2-1.2c-0.9,0.1-1.5,0.8-1.6,1.8c0,0.1,0,0.3,0,0.4c0,0.1,0,0.2,0,0.3
					c0.1,1.3,0.5,10.7,0.5,14.2c0,2.1,0,8.7,0,11.3c-1.1-1.6-3.7-5.5-7-10.7c-1.9-3.1-4-6.5-5.7-10.1c-0.6-1.3-1.3-2.6-2-3.8
					c-0.4-0.7-0.8-1.4-1.3-2.1c-0.2-0.3-0.5-0.7-1-1c-0.6-0.4-1.3-0.5-1.9-0.3c-0.6,0.2-1.1,0.7-1.4,1.3c0,0.1,0,0.2-0.1,0.2
					c0,0,0,0.1,0,0.2c-0.6,2.4-0.9,4.9-0.9,7.8c0,5.4,0.1,9.9,0.2,14.2c0,2.2,0.2,4.3,0.4,6.4l0.1,1.6c0,0.5,0.1,0.9,0.2,1.4
					l0.1,0.4c0.2,0.5,0.5,0.9,1.1,1.2c0.2,0.1,0.5,0.2,0.7,0.2c0.3,0,0.5-0.1,0.7-0.2c0.4-0.2,0.7-0.6,0.7-1.1
					c0.1-0.3,0.1-0.6,0-0.9c0-2.2-0.1-4.4-0.2-6.6c-0.1-2.2-0.1-4.4-0.2-6.6v0c-0.1-3.5-0.2-7.2,0-10.8c0-0.7,0.1-1.4,0.1-2.1
					c0.1,0.2,0.3,0.5,0.4,0.8l0.9,1.8c0.9,1.8,1.9,3.6,2.8,5.3c3,5.2,6.3,10.2,9.6,15.1c0.7,1,1.4,2.1,2.1,3.1
					c0.2,0.3,0.4,0.5,0.7,0.8c0.1,0.1,0.2,0.3,0.4,0.4c0.5,0.5,1.3,0.8,2.1,0.6c0.8-0.2,1.3-0.7,1.6-1.5c0.1-0.4,0.3-1,0.3-1.5
					l0-0.1c0.1-1.1,0.2-2.2,0.2-3.3c0-6.6-0.3-22.9-0.5-24.8C301.5,291.7,301.3,291.1,301.2,290.5z"/>
				<path class="st0" d="M328.7,310.7c-0.3-0.1-0.6-0.2-1-0.2c-1.8-0.2-3.5-0.1-5.3,0c-0.6,0-1.2,0.1-1.7,0.1
					c-0.3,0-0.7,0.1-1.1,0.3c-0.6,0.4-0.9,1.1-0.8,2c0.2,0.7,0.8,1.2,1.5,1.3c0.2,0,0.4,0,0.6,0c0.1,0,0.1,0,0.2,0l0.2,0
					c1.5,0,2.8-0.1,4.3-0.1c0.1,0,0.2,0,0.3,0c0.2,0,0.4,0,0.5,0c-0.4,1.9-1.1,3.5-2.1,4.8c-1.5,1.9-3.5,2.5-6,1.9
					c-2-0.6-3.7-1.8-5.1-3.8c-1.1-1.4-1.8-2.9-2.4-4.5c-1.5-4.2-1.6-8.4-0.1-12.7c0.7-1.9,1.6-3.3,2.8-4.5c1-1,2.2-1.6,3.6-1.9
					c1.4-0.3,2.8-0.3,4.3,0.1c2.3,0.6,4.2,1.9,5.8,4c0.1,0.1,0.2,0.2,0.2,0.3c0.2,0.3,0.4,0.5,0.7,0.7c0.6,0.5,1.3,0.5,2-0.1
					c0.5-0.5,0.6-1.1,0.4-1.8c-0.1-0.2-0.1-0.3-0.2-0.5c-0.3-0.5-0.6-1-0.9-1.4c-2.9-3.6-6.7-5.3-11.2-5.1c-2.8,0.1-5.2,1.1-7.1,3
					c-0.9,0.9-1.7,2-2.4,3.1c-1.4,2.5-2.3,5.4-2.5,8.8c-0.3,4.1,0.6,8,2.6,12c0.8,1.5,1.8,2.9,3.1,4.2c1.7,1.7,3.7,2.9,5.9,3.5
					c0.9,0.2,1.7,0.3,2.5,0.3c2.4,0,4.5-0.9,6.3-2.8c0.7-0.7,1.2-1.5,1.7-2.4c0.7-1.3,1.2-2.3,1.4-3.5c0-0.2,0.1-0.4,0.2-0.6
					c0.2-0.6,0.3-1.3,0.4-1.9C330.5,312,329.9,311.1,328.7,310.7z"/>
			</g>
		</g>
		<g>
			<path class="st0" d="M169.9,172.5c-2.3,0.9-4.3,1.9-6.4,2.6c-2.1,0.7-4.3,1-6.6,1.5c-0.5,2.6-1,5.3-1.6,8
				c-1.9,8.5-4.7,16.8-8.8,24.5c-1.4,2.7-3.2,5.2-5.1,7.5c-1.3,1.5-3,2.8-4.7,3.8c-3.7,2.1-7.4,1.8-10.9-0.6
				c-2.4-1.7-4.2-3.9-5.8-6.4c-2.3-3.8-3.8-8.1-4.8-12.4c-0.6-2.4-0.9-4.9-1.3-7.4c-0.1-0.4-0.2-0.8-0.4-1.5c-0.4,0.8-0.7,1.4-1,1.8
				c-1.7,3-3.3,6.1-5.2,8.9c-1.3,1.9-3,3.5-4.8,4.9c-4.6,3.5-9.7,2.9-13.6-1.3c-2.7-3-4.2-6.6-5-10.5c-1.3-5.8-1.3-11.7-0.7-17.5
				c0.8-8.3,2.3-16.4,5.1-24.3c0.1-0.3,0.1-0.5,0.2-0.8c0.6-1.5,1-1.8,2.6-1.4c1.6,0.4,3.1,0.9,4.6,1.5c1.4,0.5,1.7,1.2,1.5,2.7
				c-0.1,0.7-0.3,1.3-0.5,1.9c-2.5,7.7-3.9,15.7-4.5,23.8c-0.3,4.5-0.1,9.1,1.1,13.5c0.5,2,1.3,4,3.2,5.5c0.9-0.9,2-1.5,2.6-2.5
				c1.6-2.4,3.4-4.8,4.5-7.4c3.2-7.2,6.1-14.4,9.1-21.7c0.4-0.9,0.7-1.8,1.1-2.6c0.9-1.5,1.7-1.8,3.4-1.5c1,0.2,2,0.5,2.9,0.7
				c2.6,0.7,3.1,1.5,3,4.2c-0.2,2.4-0.4,4.7-0.5,7.1c-0.5,7.7-0.2,15.4,1.8,22.9c0.9,3.3,2,6.6,4,9.4c2.8,3.8,3.4,3.8,6.5,0.4
				c1.2-1.4,2.3-3,3.1-4.7c4.8-9.2,7.8-18.9,9.4-29.2c0-0.1,0-0.3-0.1-0.7c-0.6-0.2-1.3-0.4-1.9-0.7c-11-4.4-18.3-12.2-21.2-23.8
				c-1-4.1-1-8.3,0.6-12.4c1.6-4.2,4.2-7.4,8.5-9c3.8-1.4,7.6-0.9,11.2,0.9c3,1.6,5.3,3.9,7.1,6.8c3.1,4.7,4.7,10,5.6,15.5
				c0.7,4.2,1,8.5,0.7,12.7c0,0.5,0,0.9,0.1,1.5c4.7-0.8,8.5-3.4,12.5-5.2c0.2-2.3,0.4-4.4,0.5-6.4c0.2-2.7,0.9-3.3,3.5-3.3
				c0.7,0,1.4,0,2,0.1c2.5,0.2,3.2,0.9,3.4,3.4c0.1,1.8,0.1,3.7-0.1,5.5c-0.7,8.4-1.1,16.9-0.3,25.3c0.5,5.3,1.2,10.5,3.2,15.4
				c0.9,2.2,2.1,4.4,3.3,6.4c0.6,0.9,1.5,1.7,2.5,2.7c0.8-1,1.6-1.8,2.1-2.7c1.1-2.2,2.3-4.3,3.1-6.6c3.5-10.2,6.6-20.5,8.7-31.2
				c0.2-0.9,0.3-1.7,0.3-2.6c0.1-4.5,0.2-9,0.3-13.6c0-0.2-0.1-0.4-0.2-0.9c-1.7,0.2-3.4,0.3-5.1,0.6c-1.4,0.2-2.8,0.5-4.2,0.8
				c-2.4,0.4-3.6-0.4-4-2.7c-0.2-0.8-0.3-1.6-0.4-2.4c-0.2-2.1,0.7-3.4,2.7-3.9c2.5-0.5,5-0.9,7.6-1.3c1.5-0.2,2.9-0.3,4.6-0.5
				c0.3-1.3,0.6-2.6,0.9-3.9c0.4-1.6,0.7-3.2,1.2-4.7c0.5-1.6,1.4-2.4,3-1.9c1.7,0.5,3.4,1.3,4.9,2.2c0.9,0.5,1.1,1.4,0.8,2.5
				c-0.5,1.6-0.8,3.3-1.2,5.1c0.7,0,1.2,0.1,1.8,0.1c2.7,0,5.4,0,8.1,0c0.5,0,1.1,0,1.6,0c2.8,0.4,3.5,1.2,3.5,4
				c0,0.8,0,1.6-0.1,2.4c-0.3,1.9-1.3,2.8-3.3,2.8c-3.4,0-6.9,0-10.3,0c-0.7,0-1.5,0-2.2,0c-0.2,0.5-0.3,0.8-0.4,1.1
				c-1.1,12.8-0.1,25.4,4,37.6c1,2.9,2.3,5.6,3.7,8.3c0.6,1.2,1.6,2.3,2.6,3.3c1.2,1.2,1.9,1,2.6-0.4c0.6-1.2,1.2-2.5,1.5-3.7
				c1.8-6.5,3.5-13,5.1-19.6c0.2-0.9,0.2-1.9,0.1-2.8c-0.1-4.2,0-8.4,1.2-12.4c0.9-3,2.2-5.8,4.2-8.2c6.5-8.1,17.3-8.7,24.7-1.4
				c2.1,2.1,3.8,4.6,5,7.3c1.1,2.4,0.7,3.7-1.5,5.2c-0.5,0.3-1,0.7-1.6,0.9c-1.9,0.9-3.4,0.5-4.6-1.2c-0.4-0.5-0.6-1.2-1-1.7
				c-1-1.4-1.8-2.9-3-4c-3.3-3.3-7.5-3.1-10.6,0.4c-1.7,1.9-2.6,4.2-3.1,6.7c-0.9,4.3-0.6,8.6,0.1,12.9c1.1,6.9,3.5,13.3,7.5,19.1
				c1.3,1.8,2.7,3.6,4.3,5.1c3.4,3.2,6.1,3,9.1-0.6c1.2-1.4,2.2-3.1,3.2-4.7c2.8-4.7,4.6-9.8,6.6-14.8c1.1-2.8,2.2-5.7,3.1-8.6
				c0.4-1.1,0.6-2.4,0.5-3.5c-0.5-5.9-0.7-11.9-0.3-17.8c0.4-5.7,1.2-11.4,3.2-16.8c1-2.7,2.4-5.3,4.2-7.6c1.3-1.7,2.9-3.2,4.8-4.3
				c5.4-3.1,11.2-1.9,14.9,3.2c2.7,3.8,4,8.1,4.1,12.7c0.2,6.3-1.4,12.2-3.8,17.9c-2.2,5.3-5.3,10-9.1,14.3c-1,1.1-2.2,2.2-3.3,3.2
				c-1.2,1-2.5,1.9-3.9,2.9c1.5,8,4.2,15.8,7.9,23.7c0.3-0.7,0.5-1.1,0.7-1.6c2.5-7.7,5.3-15.3,8.9-22.6c2.5-5,5.3-9.9,8.8-14.3
				c2.6-3.3,5.6-6.3,9.3-8.4c1.9-1,3.9-1.9,6-2.4c4.4-1.1,8.2,0.6,10.7,4.4c1.9,3,2.8,6.3,2.9,9.8c0.3,6.4,0.4,12.8,0.5,19.2
				c0.1,5.3,0.2,10.5,1.2,15.7c0.3,1.5,0.7,3,1.2,4.5c0.3,1,0.8,2,1.4,2.9c1.4,2.1,3.1,2.3,5.1,0.6c1.8-1.6,2.9-3.7,4-5.8
				c0.6-1.1,1.1-2.3,1.7-3.4c0.8-1.4,1.5-1.6,3-1.1c1.4,0.5,2.8,1.1,4.1,1.7c1.4,0.7,1.8,1.6,1.2,3c-1.7,4.1-3.6,8-6.6,11.3
				c-2.7,2.9-5.9,4.7-9.9,4.8c-3.2,0-5.8-1.1-8-3.3c-2.3-2.3-3.8-5-4.8-8.1c-1.5-4.7-2.3-9.5-2.4-14.3c-0.2-7.8-0.2-15.5-0.5-23.3
				c-0.1-2.3-0.4-4.7-0.9-7c-0.6-2.7-1.5-3.1-4-1.8c-2.4,1.2-4.4,2.9-6.2,4.9c-3.1,3.4-5.5,7.1-7.7,11.1c-4.9,9-8.3,18.6-11.3,28.4
				c-0.5,1.6-1,3.2-1.6,4.8c-0.3,0.9-0.7,1.8-1.2,2.5c-2.1,3.1-5.8,3.4-8.3,0.8c-0.9-0.9-1.6-2-2.3-3.1c-3.8-6.3-6.5-13.2-8.8-20.2
				c-0.2-0.5-0.3-1-0.6-1.9c-0.4,0.9-0.7,1.4-1,2c-2.1,4-4,8.1-6.2,12.1c-1.4,2.6-3.2,4.8-5.5,6.7c-5.3,4.5-11.9,4.9-17.6,1
				c-2.6-1.8-4.8-4-6.6-6.5c-1.8-2.7-3.4-5.5-5.1-8.2c-0.3-0.6-0.6-1.2-1.1-2c-0.5,1.6-0.9,2.9-1.4,4.3c-0.9,2.8-1.9,5.5-3.7,7.8
				c-3,3.9-7.6,5.2-12.1,3.1c-1.4-0.7-2.9-1.6-3.9-2.8c-1.7-1.9-3.4-3.9-4.6-6.1c-1.6-3-2.7-6.2-4-9.3c-0.2-0.6-0.4-1.1-0.7-2
				c-0.3,0.6-0.5,1-0.6,1.4c-1.5,4.4-2.8,8.9-4.4,13.2c-0.8,2.2-1.9,4.3-3.1,6.4c-0.8,1.4-1.8,2.7-2.9,3.8c-4,4.1-9.2,4.3-13.7,0.7
				c-2.1-1.7-3.6-3.8-5-6.1c-3-5.1-4.6-10.6-5.7-16.4c-1.2-6.7-1.6-13.4-1.5-20.2C169.9,174,169.9,173.4,169.9,172.5z M285.3,169.4
				c0.2,0.1,0.4,0.2,0.6,0.3c0.5-0.6,1-1.2,1.6-1.8c4.7-5.3,7.9-11.4,9.6-18.2c0.7-2.7,1-5.4,0.8-8.2c-0.2-2.4-0.8-4.6-2.2-6.6
				c-0.9-1.3-1.8-1.5-3.1-0.6c-0.9,0.7-1.8,1.6-2.5,2.6c-1.6,2.2-2.5,4.6-3.1,7.2c-1.3,4.9-1.8,9.8-1.9,14.8
				C285,162.3,285.2,165.9,285.3,169.4z M148.5,165.8c0.1-0.4,0.2-0.6,0.2-0.9c-0.1-3.4-0.1-6.8-0.5-10.1c-0.5-4-1.6-7.8-3.6-11.3
				c-1-1.7-2.1-3.3-3.7-4.5c-2.9-2-5.5-1.3-7,1.8c-0.4,0.7-0.7,1.5-0.8,2.3c-0.1,1.7-0.3,3.6,0.1,5.2c1.8,8.2,6.8,13.7,14.3,17.2
				C147.8,165.7,148.1,165.7,148.5,165.8z"/>
			<path class="st0" d="M175.2,146c-3.6,0-6.4-2.8-6.4-6.4c0.1-3.5,2.9-6.3,6.4-6.2c3.5,0,6.7,3.2,6.7,6.5
				C181.9,143.3,178.9,146,175.2,146z"/>
		</g>
	</g>
	<g>
		<g>
			<path class="st0" d="M257.3,332.3c-0.1-0.3-0.4-0.6-0.7-0.6c-0.5,0-1.1-0.1-1.6,0c-3.8,0.7-7.3,1.9-10.4,4.3
				c-1.8,1.3-3.4,2.9-5,4.4c-1.4,1.3-2.7,2.7-4.3,3.8c-1.1,0.8-2.3,1.3-3.7,1.4c-0.3,0-0.5,0-0.8,0c-0.2-1.1-0.2-2.2,0.1-3.2
				c0.1-0.4,0.2-0.8,0.3-1.3c0.1-0.6-0.4-1-0.9-0.9c-0.3,0-0.6,0.2-0.8,0.3c-0.3,0.1-0.6,0.3-0.9,0.5c-1,0.4-1.9,0.3-2.7-0.5
				c-0.3-0.3-0.6-0.5-0.8-0.8c-0.3-0.2-0.6-0.4-1-0.3c-0.4,0.2-0.5,0.5-0.5,0.9c0,0.5,0,1-0.1,1.4c-0.1,0.7-0.2,1.3-0.3,2.2
				c-1.1-0.6-1.8-1.4-2.4-2.2c-0.9-1.3-1.8-2.6-2.7-4c-2-3-4.3-5.7-7-8.1c-2.4-2.1-5.1-3.7-8-5c-0.2-0.1-0.3-0.1-0.5-0.2
				c-0.6-0.1-1,0.3-0.8,0.9c0.1,0.3,0.2,0.5,0.3,0.8c0.9,2.2,1,4.4,0.1,6.7c-0.3,0.9-1.1,1.5-1.7,2.2c-0.8,1-0.6,1.7,0.5,2.2
				c0.8,0.4,1.7,0.9,2.4,1.4c1.4,1,2.3,2.3,2.4,4.1c0,0.5,0,1,0,1.4c0,0.3,0,0.6,0,0.9c0,0.8,0.3,1.1,1.1,1.3
				c0.4,0.1,0.8,0.1,1.1,0.1c1.5,0.2,3,0.5,4.4,1.3c2.2,1.2,3.7,3,4.4,5.5c0.1,0.4,0.2,0.9,0.4,1.3c0.2,0.5,0.7,0.7,1.3,0.4
				c0.3-0.2,0.6-0.4,0.9-0.6c0.6-0.4,1.2-0.7,1.8-0.8c1.1-0.2,1.9,0.2,2.4,1.3c0,0.1,0.1,0.1,0.1,0.2c0.3,0.6,0.9,0.6,1.3,0.1
				c0.1-0.1,0.2-0.3,0.3-0.5c0.2-0.3,0.5-0.6,0.9-0.5c0.4,0,0.6,0.4,0.7,0.7c0.1,0.3,0.1,0.5,0.3,0.8c0.3,0.6,0.8,0.6,1.2,0.1
				c0.1-0.1,0.1-0.2,0.2-0.3c0.6-1.4,2.7-1.6,3.6-0.2c0.2,0.3,0.3,0.6,0.5,0.8c0.3,0.5,0.5,0.6,0.9,0.6c0.4-0.1,0.5-0.4,0.6-0.8
				c0.2-1.6,1.1-2.7,2.3-3.6c1.4-1,2.9-1.6,4.6-1.8c1.4-0.2,2.9-0.2,4.3,0.1c0.4,0.1,0.8,0.2,1.3,0.2c0.6,0,0.9-0.3,1-0.9
				c0-0.3,0-0.6,0-0.8c0.1-0.7,0.1-1.4,0.4-2.1c0.7-1.6,1.9-2.4,3.6-2.7c0.5-0.1,1.1-0.1,1.7-0.2c1-0.1,1.3-0.7,0.8-1.5
				c-0.6-1-0.8-2.1-0.7-3.3c0.2-2.1,1.1-3.9,2.8-5.2c0.3-0.2,0.7-0.5,1-0.7C257.3,333,257.4,332.7,257.3,332.3z"/>
			<path class="st0" d="M368.5,113.9c-0.1-0.3-0.4-0.6-0.7-0.6c-0.5,0-1.1-0.1-1.6,0c-3.8,0.7-7.3,1.9-10.4,4.3
				c-1.8,1.3-3.4,2.9-5,4.4c-1.4,1.3-2.7,2.7-4.3,3.8c-1.1,0.8-2.3,1.3-3.7,1.4c-0.3,0-0.5,0-0.8,0c-0.2-1.1-0.2-2.2,0.1-3.2
				c0.1-0.4,0.2-0.8,0.3-1.3c0.1-0.6-0.4-1-0.9-0.9c-0.3,0-0.6,0.2-0.8,0.3c-0.3,0.1-0.6,0.3-0.9,0.5c-1,0.4-1.9,0.3-2.7-0.5
				c-0.3-0.3-0.6-0.5-0.8-0.8c-0.3-0.2-0.6-0.4-1-0.3c-0.4,0.2-0.5,0.5-0.5,0.9c0,0.5,0,1-0.1,1.4c-0.1,0.7-0.2,1.3-0.3,2.2
				c-1.1-0.6-1.8-1.4-2.4-2.2c-0.9-1.3-1.8-2.6-2.7-4c-2-3-4.3-5.7-7-8.1c-2.4-2.1-5.1-3.7-8-5c-0.2-0.1-0.3-0.1-0.5-0.2
				c-0.6-0.1-1,0.3-0.8,0.9c0.1,0.3,0.2,0.5,0.3,0.8c0.9,2.2,1,4.4,0.1,6.7c-0.3,0.9-1.1,1.5-1.7,2.2c-0.8,1-0.6,1.7,0.5,2.2
				c0.8,0.4,1.7,0.9,2.4,1.4c1.4,1,2.3,2.3,2.4,4.1c0,0.5,0,1,0,1.4c0,0.3,0,0.6,0,0.9c0,0.8,0.3,1.1,1.1,1.3
				c0.4,0.1,0.8,0.1,1.1,0.1c1.5,0.2,3,0.5,4.4,1.3c2.2,1.2,3.7,3,4.4,5.5c0.1,0.4,0.2,0.9,0.4,1.3c0.2,0.5,0.7,0.7,1.3,0.4
				c0.3-0.2,0.6-0.4,0.9-0.6c0.6-0.4,1.2-0.7,1.8-0.8c1.1-0.2,1.9,0.2,2.4,1.3c0,0.1,0.1,0.1,0.1,0.2c0.3,0.6,0.9,0.6,1.3,0.1
				c0.1-0.1,0.2-0.3,0.3-0.5c0.2-0.3,0.5-0.6,0.9-0.5c0.4,0,0.6,0.4,0.7,0.7c0.1,0.3,0.1,0.5,0.3,0.8c0.3,0.6,0.8,0.6,1.2,0.1
				c0.1-0.1,0.1-0.2,0.2-0.3c0.6-1.4,2.7-1.6,3.6-0.2c0.2,0.3,0.3,0.6,0.5,0.8c0.3,0.5,0.5,0.6,0.9,0.6c0.4-0.1,0.5-0.4,0.6-0.8
				c0.2-1.6,1.1-2.7,2.3-3.6c1.4-1,2.9-1.6,4.6-1.8c1.4-0.2,2.9-0.2,4.3,0.1c0.4,0.1,0.8,0.2,1.3,0.2c0.6,0,0.9-0.3,1-0.9
				c0-0.3,0-0.6,0-0.8c0.1-0.7,0.1-1.4,0.4-2.1c0.7-1.6,1.9-2.4,3.6-2.7c0.5-0.1,1.1-0.1,1.7-0.2c1-0.1,1.3-0.7,0.8-1.5
				c-0.6-1-0.8-2.1-0.7-3.3c0.2-2.1,1.1-3.9,2.8-5.2c0.3-0.2,0.7-0.5,1-0.7C368.5,114.6,368.7,114.3,368.5,113.9z"/>
			<path class="st0" d="M127.9,75.6c-0.4-0.3-0.9-0.4-1.4-0.1c-0.7,0.4-1.4,0.8-1.9,1.4c-4,4-7.2,8.6-9,14.1c-1,3.1-1.6,6.4-2.3,9.6
				c-0.5,2.8-1.1,5.6-2,8.3c-0.7,1.9-1.8,3.5-3.3,4.8c-0.3,0.3-0.7,0.5-1,0.7c-1.2-1.2-2-2.5-2.6-4c-0.2-0.6-0.4-1.2-0.7-1.8
				c-0.4-0.7-1.3-0.9-1.9-0.3c-0.3,0.3-0.5,0.7-0.8,1.1c-0.3,0.5-0.5,0.9-0.7,1.4c-0.8,1.3-2,1.9-3.6,1.7c-0.6-0.1-1.1-0.1-1.7-0.2
				c-0.5-0.1-1.1-0.1-1.4,0.5c-0.4,0.5-0.2,1.1,0.1,1.6c0.4,0.6,0.8,1.2,1.1,1.8c0.5,0.9,0.9,1.8,1.5,2.9c-1.9,0.1-3.4-0.2-4.8-0.7
				c-2.3-0.8-4.5-1.7-6.7-2.5c-5-2-10.1-3.4-15.4-3.9c-4.7-0.5-9.4-0.2-14,0.6c-0.3,0-0.5,0.1-0.8,0.2c-0.8,0.4-0.9,1.3-0.3,1.8
				c0.3,0.3,0.7,0.4,1,0.7c3,1.9,5,4.6,5.9,8c0.3,1.4,0,2.8-0.1,4.1c-0.1,1.9,0.6,2.6,2.4,2.3c1.4-0.2,2.8-0.4,4.1-0.4
				c2.5,0,4.8,0.9,6.4,2.9c0.4,0.6,0.9,1.1,1.3,1.7c0.3,0.4,0.5,0.8,0.7,1.1c0.7,1,1.3,1.1,2.4,0.6c0.5-0.2,1-0.5,1.5-0.8
				c2-1.1,4.1-1.9,6.4-2.2c3.8-0.4,7.1,0.5,10.1,2.9c0.5,0.4,1,0.9,1.6,1.2c0.8,0.5,1.5,0.2,1.9-0.6c0.2-0.5,0.3-1,0.5-1.5
				c0.4-1,0.8-1.9,1.5-2.6c1.2-1.2,2.5-1.3,4-0.5c0.1,0.1,0.2,0.1,0.3,0.2c0.9,0.4,1.7,0,1.7-1c0-0.3,0-0.5,0-0.8
				c0-0.5,0.1-1.1,0.6-1.3c0.5-0.3,1-0.1,1.5,0.3c0.3,0.2,0.6,0.5,1,0.7c0.8,0.5,1.5,0,1.6-0.9c0-0.2,0-0.4-0.1-0.6
				c-0.5-2.2,1.9-4.2,4.2-3.3c0.5,0.2,0.9,0.4,1.3,0.6c0.8,0.3,1.2,0.3,1.5-0.1c0.4-0.5,0.3-1,0-1.5c-1.2-2.1-1-4.2-0.3-6.4
				c0.8-2.4,2.2-4.4,4-6.1c1.6-1.5,3.4-2.6,5.3-3.6c0.6-0.3,1.2-0.5,1.7-0.9c0.8-0.5,0.9-1.2,0.5-1.9c-0.2-0.4-0.5-0.7-0.7-1
				c-0.5-0.9-1.1-1.8-1.3-2.8c-0.5-2.5,0.3-4.6,2-6.4c0.6-0.6,1.2-1.1,1.9-1.6c1.2-1,1-1.9-0.4-2.5c-1.6-0.7-2.8-1.8-3.7-3.3
				c-1.6-2.8-1.9-5.7-1-8.8c0.2-0.6,0.4-1.1,0.5-1.7C128.5,76.4,128.4,75.9,127.9,75.6z"/>
		</g>
		<g>
			<path class="st27" d="M109.6,235.7c0.7-0.7,0.3-2-0.7-2.1l-7.7-1.1c-0.4-0.1-0.7-0.3-0.9-0.7l-3.4-6.9c-0.5-0.9-1.8-0.9-2.2,0
				l-3.4,6.9c-0.2,0.4-0.5,0.6-0.9,0.7l-7.7,1.1c-1,0.1-1.4,1.4-0.7,2.1l5.5,5.4c0.3,0.3,0.4,0.7,0.4,1.1l-1.3,7.6
				c-0.2,1,0.9,1.8,1.8,1.3l6.9-3.6c0.4-0.2,0.8-0.2,1.1,0l6.9,3.6c0.9,0.5,2-0.3,1.8-1.3l-1.3-7.6c-0.1-0.4,0.1-0.8,0.4-1.1
				L109.6,235.7z"/>
			<path class="st27" d="M377.6,167.6c0.7-0.7,0.3-2-0.7-2.1l-7.7-1.1c-0.4-0.1-0.7-0.3-0.9-0.7l-3.4-6.9c-0.5-0.9-1.8-0.9-2.2,0
				l-3.4,6.9c-0.2,0.4-0.5,0.6-0.9,0.7l-7.7,1.1c-1,0.1-1.4,1.4-0.7,2.1l5.5,5.4c0.3,0.3,0.4,0.7,0.4,1.1l-1.3,7.6
				c-0.2,1,0.9,1.8,1.8,1.3l6.9-3.6c0.4-0.2,0.8-0.2,1.1,0l6.9,3.6c0.9,0.5,2-0.3,1.8-1.3l-1.3-7.6c-0.1-0.4,0.1-0.8,0.4-1.1
				L377.6,167.6z"/>
			<path class="st27" d="M354.5,239.8c0.5-0.5,0.2-1.3-0.5-1.4l-5.1-0.7c-0.3,0-0.5-0.2-0.6-0.4l-2.3-4.6c-0.3-0.6-1.2-0.6-1.5,0
				l-2.3,4.6c-0.1,0.2-0.3,0.4-0.6,0.4l-5.1,0.7c-0.7,0.1-0.9,0.9-0.5,1.4l3.7,3.6c0.2,0.2,0.3,0.5,0.2,0.7l-0.9,5
				c-0.1,0.7,0.6,1.2,1.2,0.9l4.5-2.4c0.2-0.1,0.5-0.1,0.8,0l4.5,2.4c0.6,0.3,1.3-0.2,1.2-0.9l-0.9-5c0-0.3,0-0.5,0.2-0.7
				L354.5,239.8z"/>
			<path class="st27" d="M327.6,213.8c0.5-0.5,0.2-1.3-0.5-1.4l-5.1-0.7c-0.3,0-0.5-0.2-0.6-0.4l-2.3-4.6c-0.3-0.6-1.2-0.6-1.5,0
				l-2.3,4.6c-0.1,0.2-0.3,0.4-0.6,0.4l-5.1,0.7c-0.7,0.1-0.9,0.9-0.5,1.4l3.7,3.6c0.2,0.2,0.3,0.5,0.2,0.7l-0.9,5
				c-0.1,0.7,0.6,1.2,1.2,0.9l4.5-2.4c0.2-0.1,0.5-0.1,0.8,0l4.5,2.4c0.6,0.3,1.3-0.2,1.2-0.9l-0.9-5c0-0.3,0-0.5,0.2-0.7
				L327.6,213.8z"/>
			<path class="st27" d="M105.2,272.5c0.3-0.3,0.1-0.9-0.3-1l-3.5-0.5c-0.2,0-0.3-0.1-0.4-0.3l-1.6-3.2c-0.2-0.4-0.8-0.4-1,0
				l-1.6,3.2c-0.1,0.2-0.2,0.3-0.4,0.3l-3.5,0.5c-0.5,0.1-0.6,0.6-0.3,1l2.5,2.5c0.1,0.1,0.2,0.3,0.2,0.5l-0.6,3.5
				c-0.1,0.5,0.4,0.8,0.8,0.6l3.1-1.6c0.2-0.1,0.4-0.1,0.5,0l3.1,1.6c0.4,0.2,0.9-0.1,0.8-0.6l-0.6-3.5c0-0.2,0-0.4,0.2-0.5
				L105.2,272.5z"/>
			<path class="st27" d="M253.9,129.6c0.3-0.3,0.1-0.9-0.3-1l-3.5-0.5c-0.2,0-0.3-0.1-0.4-0.3l-1.6-3.2c-0.2-0.4-0.8-0.4-1,0
				l-1.6,3.2c-0.1,0.2-0.2,0.3-0.4,0.3l-3.5,0.5c-0.5,0.1-0.6,0.6-0.3,1l2.5,2.5c0.1,0.1,0.2,0.3,0.2,0.5l-0.6,3.5
				c-0.1,0.5,0.4,0.8,0.8,0.6l3.1-1.6c0.2-0.1,0.4-0.1,0.5,0l3.1,1.6c0.4,0.2,0.9-0.1,0.8-0.6l-0.6-3.5c0-0.2,0-0.4,0.2-0.5
				L253.9,129.6z"/>
			<path class="st27" d="M184.5,344.5c0.5-0.5,0.2-1.3-0.5-1.4l-5.1-0.7c-0.3,0-0.5-0.2-0.6-0.4l-2.3-4.6c-0.3-0.6-1.2-0.6-1.5,0
				l-2.3,4.6c-0.1,0.2-0.3,0.4-0.6,0.4l-5.1,0.7c-0.7,0.1-0.9,0.9-0.5,1.4l3.7,3.6c0.2,0.2,0.3,0.5,0.2,0.7l-0.9,5
				c-0.1,0.7,0.6,1.2,1.2,0.9l4.5-2.4c0.2-0.1,0.5-0.1,0.8,0l4.5,2.4c0.6,0.3,1.3-0.2,1.2-0.9l-0.9-5c0-0.3,0-0.5,0.2-0.7
				L184.5,344.5z"/>
		</g>
	</g>
</g>
</svg>
